<?xml version="1.0" encoding="UTF-8"?>
<svg xmlns="http://www.w3.org/2000/svg" viewBox="0 0 60 40" role="img" aria-label="Flag of South Korea"><rect width="60" height="40" fill="#FFF"/><circle cx="30" cy="20" r="9" fill="#0047A0"/><path d="M21 20a4.5 4.5 0 0 1 9 0 4.5 4.5 0 0 0 9 0 9 9 0 0 0-18 0z" fill="#CD2E3A"/><g fill="#0F172A" transform="translate(30 20)"><g transform="rotate(-56)"><g transform="translate(0 -14)"><rect x="-3.6" y="-2.4" width="7.2" height="1.3"/><rect x="-3.6" y="-.65" width="7.2" height="1.3"/><rect x="-3.6" y="1.1" width="7.2" height="1.3"/></g></g><g transform="rotate(56)"><g transform="translate(0 -14)"><rect x="-3.6" y="-2.4" width="3.1" height="1.3"/><rect x="0.5" y="-2.4" width="3.1" height="1.3"/><rect x="-3.6" y="-.65" width="7.2" height="1.3"/><rect x="-3.6" y="1.1" width="3.1" height="1.3"/><rect x="0.5" y="1.1" width="3.1" height="1.3"/></g></g><g transform="rotate(-124)"><g transform="translate(0 -14)"><rect x="-3.6" y="-2.4" width="3.1" height="1.3"/><rect x="0.5" y="-2.4" width="3.1" height="1.3"/><rect x="-3.6" y="-.65" width="3.1" height="1.3"/><rect x="0.5" y="-.65" width="3.1" height="1.3"/><rect x="-3.6" y="1.1" width="3.1" height="1.3"/><rect x="0.5" y="1.1" width="3.1" height="1.3"/></g></g><g transform="rotate(124)"><g transform="translate(0 -14)"><rect x="-3.6" y="-2.4" width="7.2" height="1.3"/><rect x="-3.6" y="-.65" width="3.1" height="1.3"/><rect x="0.5" y="-.65" width="3.1" height="1.3"/><rect x="-3.6" y="1.1" width="7.2" height="1.3"/></g></g></g></svg>
